#N canvas -7 0 958 1028 10;
#X obj 179 21 inlet;
#X text 223 19 velocity;
#X obj 179 48 buddy;
#X obj 179 75 spigot;
#X text 223 78 ignore note off;
#X obj 208 332 + 1;
#X obj 179 332 f;
#X obj 179 102 bng 15 250 50 0 empty empty empty 17 7 0 10 -262144
-1 -1;
#X obj 179 372 s notes_per_second;
#X obj 55 235 loadbang;
#X msg 55 283 0;
#X text 233 332 count number notes played;
#X text 54 186 set count to 0 every 0.5 seconds;
#X obj 55 257 metro 1000;
#X connect 0 0 2 0;
#X connect 0 0 2 1;
#X connect 2 0 3 0;
#X connect 2 1 3 1;
#X connect 3 0 7 0;
#X connect 5 0 6 1;
#X connect 6 0 5 0;
#X connect 6 0 8 0;
#X connect 7 0 5 0;
#X connect 7 0 6 0;
#X connect 9 0 13 0;
#X connect 10 0 6 0;
#X connect 13 0 10 0;
