#N canvas 953 0 958 1028 10;
#X obj 9 13 inlet~ left;
#X obj 98 13 inlet~ right;
#X obj 9 912 outlet~ left;
#X obj 157 912 outlet~ right;
#X obj 300 13 inlet keyvelo;
#X obj 300 35 s \$0-key_velocity;
#X obj 110 284 r \$0-key_velocity;
#X obj 11 304 rje_effect_wahwah;
#X obj 10 388 rje_effect_distortion;
#X obj 133 364 r \$0-key_velocity;
#X obj 127 202 r \$0-key_velocity;
#X obj 10 226 rje_effect_freqshift;
#X obj 114 460 r \$0-key_velocity;
#X obj 9 480 rje_effect_bitdown;
#X obj 115 545 r \$0-key_velocity;
#X obj 10 567 rje_effect_flanger;
#X obj 97 635 r \$0-key_velocity;
#X obj 10 657 rje_effect_echo;
#X obj 10 716 rje_effect_reverb;
#X obj 158 847 dyn.comp~ 5 80 5 5;
#X obj 10 847 dyn.comp~ 5 80 5 5;
#X obj 157 891 dyn.limit~;
#X obj 10 891 dyn.limit~;
#X obj 157 869 *~ 2;
#X obj 10 869 *~ 2;
#X obj 126 771 r \$0-key_velocity;
#X obj 9 795 rje_effect_freqshift;
#X connect 0 0 11 0;
#X connect 1 0 11 1;
#X connect 4 0 5 0;
#X connect 6 0 7 2;
#X connect 7 0 8 0;
#X connect 7 1 8 1;
#X connect 8 0 13 0;
#X connect 8 1 13 1;
#X connect 9 0 8 2;
#X connect 10 0 11 2;
#X connect 11 0 7 0;
#X connect 11 1 7 1;
#X connect 12 0 13 2;
#X connect 13 0 15 0;
#X connect 13 1 15 1;
#X connect 14 0 15 2;
#X connect 15 0 17 0;
#X connect 15 1 17 1;
#X connect 16 0 17 2;
#X connect 17 0 18 0;
#X connect 17 1 18 1;
#X connect 18 0 26 0;
#X connect 18 1 26 1;
#X connect 19 0 23 0;
#X connect 20 0 24 0;
#X connect 21 0 3 0;
#X connect 22 0 2 0;
#X connect 23 0 21 0;
#X connect 24 0 22 0;
#X connect 25 0 26 2;
#X connect 26 0 20 0;
#X connect 26 1 19 0;
