#N canvas 466 45 958 862 10;
#X obj 69 21 inlet;
#X text 113 19 velocity;
#X obj 69 48 buddy;
#X obj 69 75 spigot;
#X obj 69 102 bng 15 250 50 0 empty empty empty 17 7 0 10 -262144 -1
-1;
#X obj 69 389 s notes_per_second;
#X obj 429 132 loadbang;
#X obj 69 238 list append;
#X obj 509 332 list store;
#X obj 302 81 loadbang;
#X obj 206 281 list.pass_if;
#X obj 428 281 >;
#X obj 69 295 list length;
#X obj 69 151 timer;
#X text 118 75 ignore note off (0);
#X obj 429 180 timer;
#X text 360 82 set both timers to 0 at start;
#X obj 429 203 - 1000;
#X text 480 204 one second a ago;
#X text 120 151 get time note played;
#X text 515 359 store all notes newer than one second;
#X text 86 336 output the number of notes newer than one second every
time 50 ms;
#X text 457 280 keep notes newer than one second;
#X obj 429 154 metro 100;
#X msg 557 120 stop;
#X text 469 179 get time now \, every 100 ms;
#X connect 0 0 2 0;
#X connect 0 0 2 1;
#X connect 2 0 3 0;
#X connect 2 1 3 1;
#X connect 3 0 4 0;
#X connect 4 0 13 1;
#X connect 6 0 23 0;
#X connect 7 0 10 0;
#X connect 7 0 12 0;
#X connect 8 0 7 1;
#X connect 9 0 13 0;
#X connect 9 0 15 0;
#X connect 10 0 8 0;
#X connect 10 1 11 0;
#X connect 11 0 10 1;
#X connect 12 0 5 0;
#X connect 13 0 7 0;
#X connect 15 0 17 0;
#X connect 17 0 11 1;
#X connect 23 0 15 1;
#X connect 23 0 7 0;
#X connect 24 0 23 0;
