#N canvas -7 0 958 1028 10;
#X obj 16 10 inlet~;
#X obj 15 511 outlet~;
#X msg 262 202 stop;
#X obj 184 139 bang;
#X obj 184 119 r start_recording;
#X obj 262 178 loadbang;
#X obj 328 178 r stop_recording;
#X obj 188 14 table \$0-loop;
#X obj 184 319 r play_loop;
#X obj 270 319 r stop_loop;
#X obj 184 348 bang;
#X msg 270 348 stop;
#X obj 351 78 bng 15 250 50 0 empty empty empty 17 7 0 10 -262144 -1
-1;
#X obj 485 234 bng 15 250 50 0 empty empty empty 17 7 0 10 -262144
-1 -1;
#X obj 404 307 bng 15 250 50 0 empty empty empty 17 7 0 10 -262144
-1 -1;
#X obj 498 311 bng 15 250 50 0 empty empty empty 17 7 0 10 -262144
-1 -1;
#X obj 184 248 tabwrite~ \$0-loop;
#X obj 184 377 tabplay~ \$0-loop;
#X connect 0 0 1 0;
#X connect 0 0 16 0;
#X connect 2 0 16 0;
#X connect 3 0 16 0;
#X connect 4 0 3 0;
#X connect 5 0 2 0;
#X connect 6 0 2 0;
#X connect 8 0 10 0;
#X connect 9 0 11 0;
#X connect 10 0 17 0;
#X connect 11 0 17 0;
#X connect 12 0 3 0;
#X connect 13 0 2 0;
#X connect 14 0 17 0;
#X connect 15 0 11 0;
#X connect 17 0 1 0;
