#N canvas 953 0 958 1028 10;
#X obj 42 40 inlet~;
#X obj 218 742 outlet~;
#X obj 219 709 *~;
#X obj 455 602 line~;
#X msg 455 578 \$1 10;
#X text 585 430 decrease volume of delays by number of notes played
per second;
#X obj 391 405 loadbang;
#X msg 391 428 1;
#X obj 42 78 delwrite~ \$0-delay1 1500;
#X obj 42 148 expr (1/($f1/60))*1000;
#X obj 42 173 change;
#X obj 42 123 r constant_delay_bpm;
#X obj 42 290 delread~ \$0-delay1;
#X obj 219 290 delread~ \$0-delay1;
#X obj 382 290 delread~ \$0-delay1;
#X obj 219 264 * 2;
#X obj 382 267 * 3;
#X obj 455 462 change;
#X text 193 150 convert bpm to ms delay (e.g. 500ms = 120 bpm);
#X obj 455 431 r notes_per_second;
#X obj 43 328 *~ 0.4;
#X obj 218 328 *~ 0.2;
#X obj 382 328 *~ 0.1;
#X obj 455 491 expr 1/(($f1 +1));
#X text 586 489 reduce volume from 1 note per second up;
#X connect 0 0 8 0;
#X connect 2 0 1 0;
#X connect 3 0 2 1;
#X connect 4 0 3 0;
#X connect 6 0 7 0;
#X connect 7 0 4 0;
#X connect 7 0 17 0;
#X connect 9 0 10 0;
#X connect 10 0 12 0;
#X connect 10 0 15 0;
#X connect 10 0 16 0;
#X connect 11 0 9 0;
#X connect 12 0 20 0;
#X connect 13 0 21 0;
#X connect 14 0 22 0;
#X connect 15 0 13 0;
#X connect 16 0 14 0;
#X connect 17 0 23 0;
#X connect 19 0 17 0;
#X connect 20 0 2 0;
#X connect 21 0 2 0;
#X connect 22 0 2 0;
#X connect 23 0 4 0;
