#N canvas 953 0 958 1028 10;
#X obj 30 134 ../lib/tb_compressor~;
#X msg 256 44 ratio 4;
#X obj 30 33 inlet~;
#X obj 30 183 outlet~;
#X msg 299 74 response 10;
#X msg 351 131 lookahead 15;
#X msg 209 15 threshold -10;
#X msg 332 103 gain 20;
#X connect 0 0 3 0;
#X connect 1 0 0 1;
#X connect 2 0 0 0;
#X connect 4 0 0 1;
#X connect 5 0 0 1;
#X connect 6 0 0 1;
#X connect 7 0 0 1;
