#N canvas -8 -8 1920 1037 10;
#X obj 22 13 loadbang;
#X msg 147 180 0.5;
#X obj 22 205 s constant_amplify;
#X obj 147 205 s constant_max_saturation;
#X obj 318 205 s constant_log_level;
#X text 346 181 2 normal \, 3 debug;
#X msg 318 180 3;
#X obj 22 61 bng 15 250 50 0 empty empty empty 17 7 0 10 -262144 -1
-1;
#X obj 495 205 s constant_string_start;
#X obj 495 155 r \$0_banger;
#X obj 22 85 s \$0_banger;
#X obj 318 155 r \$0_banger;
#X obj 147 155 r \$0_banger;
#X obj 22 155 r \$0_banger;
#X obj 665 155 r \$0_banger;
#X obj 665 205 s constant_string_full;
#X msg 495 180 1000;
#X msg 665 180 8000;
#X obj 835 153 r \$0_banger;
#X msg 835 179 0.5;
#X obj 835 203 s constant_string_volume;
#X obj 22 38 metro 500;
#X msg 22 180 1.5;
#X obj 1025 153 r \$0_banger;
#X obj 1025 203 s constant_delay_bpm;
#X msg 1025 179 140;
#X connect 0 0 21 0;
#X connect 1 0 3 0;
#X connect 6 0 4 0;
#X connect 7 0 10 0;
#X connect 9 0 16 0;
#X connect 11 0 6 0;
#X connect 12 0 1 0;
#X connect 13 0 22 0;
#X connect 14 0 17 0;
#X connect 16 0 8 0;
#X connect 17 0 15 0;
#X connect 18 0 19 0;
#X connect 19 0 20 0;
#X connect 21 0 7 0;
#X connect 22 0 2 0;
#X connect 23 0 25 0;
#X connect 25 0 24 0;
