#N canvas -8 -8 1920 1037 10;
#X floatatom 116 151 0 0 0 0 - - -;
#X floatatom 78 174 0 0 0 0 - - -;
#X floatatom 49 197 0 0 0 0 - - -;
#X obj 49 86 time;
#X floatatom 164 128 0 0 0 0 - - -;
#X text 130 129 msec;
#X text 83 149 sec;
#X text 44 174 min;
#X text 9 197 hours;
#X obj 49 21 inlet bang;
#X obj 49 54 bng 15 250 50 0 empty empty empty 17 7 0 10 -262144 -1
-1;
#X obj 49 314 outlet msec;
#X obj 49 263 expr $f4 + $f3 * 1000 + $f2 * 60 * 1000 + $f1 * 60 *
60 * 1000;
#X obj 49 230 buddy 4;
#X connect 0 0 13 2;
#X connect 1 0 13 1;
#X connect 2 0 13 0;
#X connect 3 0 2 0;
#X connect 3 1 1 0;
#X connect 3 2 0 0;
#X connect 3 3 4 0;
#X connect 4 0 13 3;
#X connect 9 0 10 0;
#X connect 10 0 3 0;
#X connect 12 0 11 0;
#X connect 13 0 12 0;
#X connect 13 1 12 1;
#X connect 13 2 12 2;
#X connect 13 3 12 3;
