#N canvas -8 -8 1920 1037 10;
#X obj 7 11 inlet;
#X obj 480 50 msg note 1;
#X text 50 10 key \, velocity (62 121);
#X text 550 49 channel 1 \, key \, velocity;
#X obj 7 33 s \$0-key_velocity;
#X obj 480 28 r \$0-key_velocity;
#X obj 257 39 r \$0-key_velocity;
#X obj 552 81 print Note received in play~\$0;
#N canvas 808 383 752 469 get_normalised_velocity 0;
#X text 90 32 velocity;
#X obj 52 55 / 127;
#X msg 52 33 \$2;
#X obj 52 132 outlet;
#X obj 51 6 inlet;
#X text 94 54 normalised;
#X connect 1 0 3 0;
#X connect 2 0 1 0;
#X connect 4 0 2 0;
#X restore 257 61 pd get_normalised_velocity;
#X obj 257 84 s \$0-velocity;
#X obj 594 200 r \$0-velocity;
#X text 515 169 OVERDRIVE;
#X text 19 160 PIANO;
#X text 256 14 VELOCITY;
#X obj 22 186 r \$0-note;
#X obj 480 81 s \$0-note;
#X text 481 10 MAKE NOTE;
#X text 1030 159 STRINGS;
#X obj 22 226 rje_sound_piano~;
#X obj 1031 181 r \$0-key_velocity;
#X obj 1031 210 rje_play_string~;
#X obj 263 798 throw~ individual_notes_left;
#X obj 468 798 throw~ individual_notes_right;
#X obj 23 501 throw~ \$0-signal_1_left;
#X obj 513 476 throw~ \$0-signal_1_left;
#X obj 1032 262 throw~ \$0-signal_1_left;
#X obj 210 503 throw~ \$0-signal_1_right;
#X obj 595 453 throw~ \$0-signal_1_right;
#X obj 1125 239 throw~ \$0-signal_1_right;
#X obj 272 639 catch~ \$0-signal_1_left;
#X obj 522 638 catch~ \$0-signal_1_right;
#X obj 522 671 rje_delay_play_note~;
#X obj 333 670 rje_delay_play_note~;
#X obj 513 300 rje_overdrive~;
#X obj 374 758 rje_pan_according_to_pitch~;
#X obj 533 736 r \$0-key_velocity;
#X obj 514 428 *~;
#X obj 594 427 *~;
#X obj 210 439 *~;
#X obj 23 439 *~;
#X obj 609 343 expr 0.8*(max($f1 - 0.5 \, 0) / 0.5);
#X obj 250 393 expr 1 - \$1;
#X obj 23 470 *~ 1.5;
#X obj 210 471 *~ 1.5;
#X connect 0 0 4 0;
#X connect 1 0 15 0;
#X connect 5 0 1 0;
#X connect 6 0 8 0;
#X connect 8 0 9 0;
#X connect 10 0 33 2;
#X connect 10 0 40 0;
#X connect 14 0 18 0;
#X connect 18 0 33 0;
#X connect 18 0 39 0;
#X connect 18 1 33 1;
#X connect 18 1 38 0;
#X connect 19 0 20 0;
#X connect 20 0 25 0;
#X connect 20 1 28 0;
#X connect 29 0 34 0;
#X connect 30 0 34 1;
#X connect 33 0 36 0;
#X connect 33 1 37 0;
#X connect 34 0 21 0;
#X connect 34 1 22 0;
#X connect 35 0 34 2;
#X connect 36 0 24 0;
#X connect 37 0 27 0;
#X connect 38 0 43 0;
#X connect 39 0 42 0;
#X connect 40 0 36 1;
#X connect 40 0 37 1;
#X connect 40 0 41 0;
#X connect 41 0 38 1;
#X connect 41 0 39 1;
#X connect 42 0 23 0;
#X connect 43 0 26 0;
