#N canvas -7 0 958 1028 10;
#X obj 201 11 inlet;
#X obj 8 278 throw~ individual_notes_left;
#X obj 193 278 throw~ individual_notes_right;
#X obj 7 132 rje_produce_note_sound~;
#X obj 7 230 rje_affect_note~;
#X text 244 10 key \, velocity - 62 121;
#X obj 201 87 buddy;
#X connect 0 0 6 0;
#X connect 0 0 6 1;
#X connect 3 0 4 0;
#X connect 3 1 4 1;
#X connect 4 0 1 0;
#X connect 4 1 2 0;
#X connect 6 0 3 0;
#X connect 6 1 4 2;
