#N canvas 207 424 772 505 10;
#X obj 228 27 r constant_log_level;
#X obj 50 25 inlet;
#X text 90 24 message to print;
#X obj 50 79 spigot;
#X obj 228 53 expr if ($f1 >= 3 \, 1 \, 0);
#X text 383 53 print if 3 or higher;
#X obj 50 106 print;
#X connect 0 0 4 0;
#X connect 1 0 3 0;
#X connect 3 0 6 0;
#X connect 4 0 3 1;
