#N canvas 179 130 961 770 10;
#X obj 141 216 spigot;
#X obj 36 25 inlet keyvelo;
#X obj 230 25 inlet ispedaldown;
#X obj 141 403 outlet keyvelo;
#X obj 168 158 == 0;
#X text 201 158 if pedal up;
#X obj 141 96 buddy;
#X obj 191 307 buddy;
#X msg 218 252 \$2;
#X obj 191 347 spigot;
#X text 258 277 if velo > 0;
#X obj 218 277 > 0;
#X connect 0 0 3 0;
#X connect 1 0 6 0;
#X connect 2 0 6 1;
#X connect 4 0 0 1;
#X connect 6 0 0 0;
#X connect 6 1 4 0;
#X connect 7 0 9 0;
#X connect 7 1 9 1;
#X connect 8 0 11 0;
#X connect 11 0 7 1;
