#N canvas -7 0 958 1028 10;
#X obj 7 11 inlet;
#X obj 20 37 s \$0-key_velocity;
#X obj 111 155 r \$0-key_velocity;
#X obj 8 258 throw~ individual_notes_left;
#X obj 193 258 throw~ individual_notes_right;
#X obj 7 62 rje_produce_note_sound~;
#X obj 7 210 rje_affect_note~;
#X text 50 10 key \, velocity - 62 121;
#X obj 262 156 rje_is_silent;
#X text 350 155 don't use this because it makes the sound cut out too
much;
#X connect 0 0 1 0;
#X connect 0 0 5 0;
#X connect 2 0 6 2;
#X connect 5 0 6 0;
#X connect 5 1 6 1;
#X connect 6 0 3 0;
#X connect 6 1 4 0;
