#N canvas 953 0 958 1028 10;
#X obj 114 17 inlet~;
#X obj 94 316 outlet shouldSwitchOn;
#X obj 26 264 loadbang;
#X obj 114 41 env~;
#X msg 94 290 0;
#X msg 237 289 1;
#X obj 114 70 change;
#X text 194 99 silence left \, sound right;
#X obj 114 98 moses 0.001;
#X obj 69 142 del 100;
#X obj 177 130 bang;
#X obj 94 194 timer 100 msec;
#X obj 94 232 > 99;
#X text 217 200 if silence longer than 100ms then switch off later
patches;
#X connect 0 0 3 0;
#X connect 2 0 4 0;
#X connect 3 0 6 0;
#X connect 4 0 1 0;
#X connect 5 0 1 0;
#X connect 6 0 8 0;
#X connect 8 0 9 0;
#X connect 8 1 10 0;
#X connect 9 0 11 1;
#X connect 10 0 5 0;
#X connect 10 0 11 0;
#X connect 11 0 12 0;
#X connect 12 0 4 0;
