#N canvas 953 0 958 1028 10;
#X obj 9 13 inlet~ left;
#X obj 98 13 inlet~ right;
#X obj 9 706 outlet~ left;
#X obj 127 706 outlet~ right;
#X obj 300 13 inlet keyvelo;
#X obj 300 35 s \$0-key_velocity;
#X obj 109 99 r \$0-key_velocity;
#X obj 10 122 rje_effect_wahwah;
#X obj 9 236 rje_effect_distortion;
#X obj 132 209 r \$0-key_velocity;
#X obj 125 311 r \$0-key_velocity;
#X obj 8 338 rje_effect_freqshift;
#X obj 126 433 r \$0-key_velocity;
#X obj 9 460 rje_effect_bitdown;
#X obj 127 521 r \$0-key_velocity;
#X obj 10 547 rje_effect_flanger;
#X connect 0 0 7 0;
#X connect 1 0 7 1;
#X connect 4 0 5 0;
#X connect 6 0 7 2;
#X connect 7 0 8 0;
#X connect 7 1 8 1;
#X connect 8 0 11 0;
#X connect 8 1 11 1;
#X connect 9 0 8 2;
#X connect 10 0 11 2;
#X connect 11 0 13 0;
#X connect 11 1 13 1;
#X connect 12 0 13 2;
#X connect 13 0 15 0;
#X connect 13 1 15 1;
#X connect 14 0 15 2;
#X connect 15 0 2 0;
#X connect 15 1 3 0;
