#N canvas -8 -8 1920 1037 10;
#X obj 16 10 inlet~;
#X obj 15 571 outlet~;
#X msg 262 212 stop;
#X obj 184 139 bang;
#X obj 262 188 loadbang;
#X msg 361 430 stop;
#X obj 184 248 tabwrite~ \$0-loop;
#X obj 188 14 table \$0-loop 1.323e+006;
#X text 340 13 44100 * 30s;
#X obj 195 163 print Start recording;
#X obj 71 379 print Play loop;
#X obj 361 379 print Stop loop;
#X obj 632 38 r record_key_pressed;
#X obj 631 107 bng 15 250 50 0 empty empty empty 17 7 0 10 -262144
-1 -1;
#X msg 632 61 \$2;
#X obj 632 85 moses 1;
#X text 684 84 ignore note off;
#X obj 631 133 tgl 15 0 empty empty empty 17 7 0 10 -262144 -1 -1 1
1;
#X obj 631 160 moses 1;
#X text 631 17 Trigger recording on/off;
#X obj 631 328 bng 15 250 50 0 empty empty empty 17 7 0 10 -262144
-1 -1;
#X msg 632 282 \$2;
#X obj 632 306 moses 1;
#X text 684 305 ignore note off;
#X obj 631 354 tgl 15 0 empty empty empty 17 7 0 10 -262144 -1 -1 0
1;
#X obj 631 381 moses 1;
#X text 631 238 Trigger play loop on/off;
#X obj 632 259 r play_key_pressed;
#X obj 631 529 timer;
#X obj 631 506 bang;
#X obj 773 504 bang;
#X obj 631 195 s \$0-stop_recording;
#X obj 766 195 s \$0-start_recording;
#X obj 631 407 s \$0-stop_loop;
#X obj 735 407 s \$0-play_loop;
#X obj 773 482 r \$0-stop_recording;
#X obj 631 482 r \$0-start_recording;
#X obj 184 119 r \$0-start_recording;
#X obj 328 188 r \$0-stop_recording;
#X obj 280 349 r \$0-stop_loop;
#X obj 184 349 r \$0-play_loop;
#X obj 328 213 print Stop recording;
#X obj 184 523 tabplay~ \$0-loop;
#X obj 184 453 metro;
#X text 630 454 Track recording length - because table is longer than
recording and must loop before finished;
#X obj 631 558 s \$0-loop-length-ms;
#X text 184 98 RECORD;
#X text 184 328 PLAY;
#X obj 211 430 r \$0-loop-length-ms;
#X msg 184 379 1;
#X msg 227 379 0;
#X msg 184 485 1;
#X connect 0 0 1 0;
#X connect 0 0 6 0;
#X connect 2 0 6 0;
#X connect 3 0 6 0;
#X connect 3 0 9 0;
#X connect 4 0 2 0;
#X connect 5 0 42 0;
#X connect 12 0 14 0;
#X connect 13 0 17 0;
#X connect 14 0 15 0;
#X connect 15 1 13 0;
#X connect 17 0 18 0;
#X connect 18 0 31 0;
#X connect 18 1 32 0;
#X connect 20 0 24 0;
#X connect 21 0 22 0;
#X connect 22 1 20 0;
#X connect 24 0 25 0;
#X connect 25 0 33 0;
#X connect 25 1 34 0;
#X connect 27 0 21 0;
#X connect 28 0 45 0;
#X connect 29 0 28 0;
#X connect 30 0 28 1;
#X connect 35 0 30 0;
#X connect 36 0 29 0;
#X connect 37 0 3 0;
#X connect 38 0 2 0;
#X connect 38 0 41 0;
#X connect 39 0 5 0;
#X connect 39 0 11 0;
#X connect 39 0 50 0;
#X connect 40 0 10 0;
#X connect 40 0 49 0;
#X connect 42 0 1 0;
#X connect 43 0 51 0;
#X connect 48 0 43 1;
#X connect 49 0 43 0;
#X connect 50 0 43 0;
#X connect 51 0 42 0;
