#N canvas -8 -8 1920 1037 10;
#X obj 622 517 outlet~ right;
#X obj 516 517 outlet~ left;
#X obj 1053 255 r constant_string_start;
#X obj 1032 179 r constant_string_full;
#X msg 21 262 \$2;
#X obj 39 45 s \$0-key_velo;
#X obj 21 240 r \$0-key_velo;
#X obj 822 372 line~;
#X obj 822 317 loadbang;
#X obj 21 336 s \$0-stop_note;
#X obj 884 317 r \$0-stop_note;
#X obj 60 314 s \$0-start_note;
#X obj 1191 178 r \$0-start_note;
#X obj 1191 199 bng 15 250 50 0 empty empty empty 17 7 0 10 -262144
-1 -1;
#X text 825 166 ramp up volume over time;
#X obj 517 447 *~;
#X text 516 22 sound note;
#X obj 1032 302 pipe;
#X obj 1032 230 change;
#X obj 1053 279 change;
#X msg 1032 326 1 \$1;
#X obj 24 430 loadbang;
#X msg 822 343 0 5;
#X obj 24 456 delay 1000;
#X msg 24 484 60 1;
#X obj 24 508 s \$0-key_velo;
#X obj 141 484 delay 1000;
#X obj 141 533 s \$0-key_velo;
#X msg 141 509 60 0;
#X text 20 393 play string briefly at start to initialise the delay
(dunno why this is needed);
#X obj 19 126 rje_is_note_on;
#X obj 19 149 switch~;
#X text 32 100 switch off this patch to save cpu;
#X obj 518 330 fluid~;
#X obj 518 57 loadbang;
#X msg 518 79 @sf ../soundfonts/k-gm.sf2;
#X obj 557 177 r \$0-key_velo;
#X msg 527 106 prog 1 49;
#X text 597 107 channel 1 \, strings;
#X obj 19 21 inlet keyvelo;
#X obj 21 289 moses 1;
#X text 18 222 if velo > 0 play \, else stop;
#X msg 557 198 \$1;
#X msg 596 204 \$2;
#X obj 596 227 * 0.66;
#X obj 557 270 list append;
#X obj 557 248 buddy;
#X text 554 155 scale down string volume;
#X obj 551 447 *~;
#X connect 2 0 19 0;
#X connect 3 0 18 0;
#X connect 4 0 40 0;
#X connect 6 0 4 0;
#X connect 7 0 15 1;
#X connect 7 0 48 1;
#X connect 8 0 22 0;
#X connect 10 0 22 0;
#X connect 12 0 13 0;
#X connect 13 0 18 0;
#X connect 15 0 1 0;
#X connect 17 0 20 0;
#X connect 18 0 17 0;
#X connect 19 0 17 1;
#X connect 20 0 7 0;
#X connect 21 0 23 0;
#X connect 22 0 7 0;
#X connect 23 0 24 0;
#X connect 23 0 26 0;
#X connect 24 0 25 0;
#X connect 26 0 28 0;
#X connect 28 0 27 0;
#X connect 30 0 31 0;
#X connect 33 0 15 0;
#X connect 33 1 48 0;
#X connect 34 0 35 0;
#X connect 35 0 33 0;
#X connect 35 0 37 0;
#X connect 36 0 42 0;
#X connect 36 0 43 0;
#X connect 37 0 33 0;
#X connect 39 0 5 0;
#X connect 39 0 30 0;
#X connect 40 0 9 0;
#X connect 40 1 11 0;
#X connect 42 0 46 0;
#X connect 43 0 44 0;
#X connect 44 0 46 1;
#X connect 45 0 33 0;
#X connect 46 0 45 0;
#X connect 46 1 45 1;
#X connect 48 0 0 0;
