#N canvas 179 130 961 770 10;
#X obj 141 216 spigot;
#X obj 36 25 inlet keyvelo;
#X obj 230 25 inlet ispedaldown;
#X obj 141 403 outlet keyvelo;
#X obj 141 96 buddy;
#X obj 141 307 buddy;
#X msg 168 252 \$2;
#X obj 141 347 spigot;
#X text 208 277 if velo > 0;
#X obj 168 277 > 0;
#X obj 168 158 == 1;
#X text 201 158 if pedal down;
#X connect 0 0 5 0;
#X connect 0 0 6 0;
#X connect 1 0 4 0;
#X connect 2 0 4 1;
#X connect 4 0 0 0;
#X connect 4 1 10 0;
#X connect 5 0 7 0;
#X connect 5 1 7 1;
#X connect 6 0 9 0;
#X connect 7 0 3 0;
#X connect 9 0 5 1;
#X connect 10 0 0 1;
