#N canvas -8 -8 1920 1037 10;
#X obj 17 17 inlet~ left;
#X obj 141 19 inlet~ right;
#X obj 840 9 inlet keyvelo;
#X obj 140 366 outlet~ right;
#X obj 470 71 rje_should_use_effect;
#X obj 317 106 rje_invert_0_1;
#X obj 15 366 outlet~ left;
#N canvas -8 -8 1920 1037 effect 0;
#X obj 17 17 inlet~ left;
#X obj 141 19 inlet~ right;
#X obj 140 726 outlet~ right;
#X obj 15 726 outlet~ left;
#X obj 16 568 *~;
#X obj 140 564 *~;
#X obj 279 19 inlet should_use_effect;
#X obj 140 645 fx.freqshift~;
#X obj 16 645 fx.freqshift~;
#X obj 509 99 mtof;
#X msg 509 54 \$1;
#X obj 509 22 inlet keyvelo;
#X obj 500 289 random 2;
#X obj 500 315 moses 1;
#X obj 500 232 moses 1;
#X obj 509 125 s \$0-thisnote;
#X obj 608 98 + 1;
#X obj 608 126 mtof;
#X obj 608 152 s \$0-highernote;
#X obj 737 125 mtof;
#X obj 737 97 - 1;
#X obj 737 151 s \$0-lowernote;
#X obj 617 384 r \$0-highernote;
#X obj 764 385 r \$0-thisnote;
#X obj 637 484 r \$0-thisnote;
#X obj 784 485 r \$0-lowernote;
#X obj 617 435 f;
#X obj 637 531 f;
#X obj 539 339 bang;
#X obj 500 340 bang;
#X obj 275 586 line~ \$1 20;
#X obj 500 260 bang;
#X obj 617 406 expr ($f1 - $f2)/2;
#X obj 637 506 expr -1 * (($f1 - $f2)/2);
#X connect 0 0 4 0;
#X connect 1 0 5 0;
#X connect 4 0 8 0;
#X connect 5 0 7 0;
#X connect 6 0 4 1;
#X connect 6 0 5 1;
#X connect 6 0 14 0;
#X connect 7 0 2 0;
#X connect 8 0 3 0;
#X connect 9 0 15 0;
#X connect 10 0 9 0;
#X connect 10 0 16 0;
#X connect 10 0 20 0;
#X connect 11 0 10 0;
#X connect 12 0 13 0;
#X connect 13 0 29 0;
#X connect 13 1 28 0;
#X connect 14 1 31 0;
#X connect 16 0 17 0;
#X connect 17 0 18 0;
#X connect 19 0 21 0;
#X connect 20 0 19 0;
#X connect 22 0 32 0;
#X connect 23 0 32 1;
#X connect 24 0 33 0;
#X connect 25 0 33 1;
#X connect 26 0 30 0;
#X connect 27 0 30 0;
#X connect 28 0 26 0;
#X connect 29 0 27 0;
#X connect 30 0 7 1;
#X connect 30 0 8 1;
#X connect 31 0 12 0;
#X connect 32 0 26 1;
#X connect 33 0 27 1;
#X restore 324 215 pd effect;
#X obj 16 215 *~ 1;
#X obj 141 215 *~ 1;
#X obj 590 178 moses 1;
#X obj 589 199 print bend;
#X connect 0 0 7 0;
#X connect 0 0 8 0;
#X connect 1 0 7 1;
#X connect 1 0 9 0;
#X connect 2 0 4 0;
#X connect 2 0 7 3;
#X connect 4 0 5 0;
#X connect 4 0 7 2;
#X connect 4 0 10 0;
#X connect 5 0 8 1;
#X connect 5 0 9 1;
#X connect 7 0 6 0;
#X connect 7 1 3 0;
#X connect 8 0 6 0;
#X connect 9 0 3 0;
#X connect 10 1 11 0;
