#N canvas -8 -8 1920 1037 10;
#X obj 22 13 loadbang;
#X msg 147 180 0.5;
#X obj 22 205 s constant_amplify;
#X obj 147 205 s constant_max_saturation;
#X obj 318 205 s constant_log_level;
#X text 346 181 2 normal \, 3 debug;
#X msg 318 180 3;
#X obj 22 61 bng 15 250 50 0 empty empty empty 17 7 0 10 -262144 -1
-1;
#X obj 495 205 s constant_string_start;
#X obj 495 155 r \$0_banger;
#X obj 22 85 s \$0_banger;
#X obj 318 155 r \$0_banger;
#X obj 147 155 r \$0_banger;
#X obj 22 155 r \$0_banger;
#X obj 665 155 r \$0_banger;
#X obj 665 205 s constant_string_full;
#X msg 495 180 1000;
#X obj 835 153 r \$0_banger;
#X obj 835 203 s constant_string_volume;
#X obj 22 38 metro 500;
#X obj 1025 153 r \$0_banger;
#X obj 1025 203 s constant_delay_bpm;
#X msg 1025 179 140;
#X obj 490 433 r \$0_banger;
#X obj 463 628 s effect_chance;
#X msg 22 180 3;
#X msg 665 180 4000;
#X msg 835 178 0.3;
#X obj 463 465 timer;
#X obj 35 378 r \$0_banger;
#X obj 35 428 s reset_effect_ms;
#X obj 474 409 loadbang;
#X obj 463 384 rje_bang_if_long_silence;
#X msg 463 578 \$1;
#X text 506 521 don't ever scale up chance \, only down;
#X text 459 357 scale up effect chance from 0 to 5% over 3 min;
#X obj 463 520 min 1;
#X msg 35 404 20000;
#X text 497 553 <------------- ALTER THIS (chance out of 1000);
#X msg 362 578 100;
#X obj 362 552 r \$0_banger;
#X text 36 358 how much silence until effects rest to 0;
#X obj 463 553 * 100;
#X obj 463 491 / 270000;
#X text 519 491 4.5m * 60s * 1000ms;
#X connect 0 0 19 0;
#X connect 1 0 3 0;
#X connect 6 0 4 0;
#X connect 7 0 10 0;
#X connect 9 0 16 0;
#X connect 11 0 6 0;
#X connect 12 0 1 0;
#X connect 13 0 25 0;
#X connect 14 0 26 0;
#X connect 16 0 8 0;
#X connect 17 0 27 0;
#X connect 19 0 7 0;
#X connect 20 0 22 0;
#X connect 22 0 21 0;
#X connect 23 0 28 1;
#X connect 25 0 2 0;
#X connect 26 0 15 0;
#X connect 27 0 18 0;
#X connect 28 0 43 0;
#X connect 29 0 37 0;
#X connect 31 0 28 0;
#X connect 32 0 28 0;
#X connect 33 0 24 0;
#X connect 36 0 42 0;
#X connect 37 0 30 0;
#X connect 40 0 39 0;
#X connect 42 0 33 0;
#X connect 43 0 36 0;
