#N canvas -8 -8 1920 1037 10;
#X obj 42 178 spigot;
#X obj 359 205 spigot;
#X obj 386 149 expr if ($f1 == 0 \, 1 \, 0);
#X msg 69 122 \$2;
#X msg 386 128 \$2;
#X obj 42 148 buddy;
#X obj 359 178 buddy;
#X obj 42 21 inlet;
#X text 91 22 key velocity;
#X msg 42 213 1;
#X msg 359 234 0;
#X obj 172 311 outlet;
#X text 218 310 1 for on \, 0 for note off;
#X connect 0 0 9 0;
#X connect 1 0 10 0;
#X connect 2 0 6 1;
#X connect 3 0 5 1;
#X connect 4 0 2 0;
#X connect 5 0 0 0;
#X connect 5 1 0 1;
#X connect 6 0 1 0;
#X connect 6 1 1 1;
#X connect 7 0 5 0;
#X connect 7 0 3 0;
#X connect 7 0 4 0;
#X connect 7 0 6 0;
#X connect 9 0 11 0;
#X connect 10 0 11 0;
