#N canvas 276 262 450 300 10;
#X obj 44 70 clip~ -1 1;
#X obj 44 12 inlet~;
#X obj 44 99 outlet~;
#X obj 44 41 *~;
#X obj 104 12 r constant_amplify;
#X connect 0 0 2 0;
#X connect 1 0 3 0;
#X connect 3 0 0 0;
#X connect 4 0 3 1;
