#N canvas -8 -8 1920 1037 10;
#X obj 7 11 inlet;
#X obj 480 50 msg note 1;
#X text 50 10 key \, velocity (62 121);
#X text 550 49 channel 1 \, key \, velocity;
#X obj 18 36 s \$0-key_velocity;
#X obj 480 28 r \$0-key_velocity;
#X obj 257 39 r \$0-key_velocity;
#N canvas 808 383 752 469 get_normalised_velocity 0;
#X text 90 32 velocity;
#X obj 52 55 / 127;
#X msg 52 33 \$2;
#X obj 52 132 outlet;
#X obj 51 6 inlet;
#X text 94 54 normalised;
#X connect 1 0 3 0;
#X connect 2 0 1 0;
#X connect 4 0 2 0;
#X restore 257 61 pd get_normalised_velocity;
#X obj 257 84 s \$0-velocity;
#X text 471 270 PIANO;
#X text 256 14 VELOCITY;
#X obj 474 296 r \$0-note;
#X obj 480 81 s \$0-note;
#X text 481 10 MAKE NOTE;
#X text 22 264 STRINGS;
#X obj 23 286 r \$0-key_velocity;
#X obj 23 311 rje_play_string~;
#X obj 24 748 throw~ individual_notes_left;
#X obj 209 748 throw~ individual_notes_right;
#X obj 474 601 throw~ \$0-signal_1_left;
#X obj 24 358 throw~ \$0-signal_1_left;
#X obj 629 601 throw~ \$0-signal_1_right;
#X obj 117 337 throw~ \$0-signal_1_right;
#X obj 25 667 catch~ \$0-signal_1_left;
#X obj 183 667 catch~ \$0-signal_1_right;
#X obj 25 716 rje_pan_according_to_pitch~;
#X obj 184 694 r \$0-key_velocity;
#X obj 7 60 rje_is_note_on;
#X obj 7 86 switch~;
#X text 22 645 OUTPUT;
#X obj 1182 539 fx.distortion~;
#X msg 1056 444 @drive \$1;
#X text 1093 422 change over 5ms to avoid click;
#X msg 1056 422 \$1 5;
#X obj 1056 375 r \$0-velocity;
#X obj 1056 399 expr max(0 \, ($f1 - 0.25));
#X obj 504 331 loadbang;
#X msg 504 353 @sf ../soundfonts/westCoastPiano.sf2;
#X obj 474 386 fluid~;
#X obj 943 537 fx.distortion~;
#X obj 943 601 throw~ \$0-signal_1_left;
#X obj 1183 601 throw~ \$0-signal_1_right;
#X connect 0 0 4 0;
#X connect 0 0 27 0;
#X connect 1 0 12 0;
#X connect 5 0 1 0;
#X connect 6 0 7 0;
#X connect 7 0 8 0;
#X connect 11 0 38 0;
#X connect 15 0 16 0;
#X connect 16 0 20 0;
#X connect 16 1 22 0;
#X connect 23 0 25 0;
#X connect 24 0 25 1;
#X connect 25 0 17 0;
#X connect 25 1 18 0;
#X connect 26 0 25 2;
#X connect 27 0 28 0;
#X connect 30 0 41 0;
#X connect 31 0 30 0;
#X connect 31 0 39 0;
#X connect 33 0 31 0;
#X connect 34 0 35 0;
#X connect 35 0 33 0;
#X connect 36 0 37 0;
#X connect 37 0 38 0;
#X connect 38 0 19 0;
#X connect 38 0 39 0;
#X connect 38 1 21 0;
#X connect 38 1 30 0;
#X connect 39 0 40 0;
