#N canvas -8 -8 1920 1037 10;
#X obj 122 23 inlet tranpose_semitones;
#X obj 14 23 inlet~ signal;
#X obj 15 174 outlet~;
#X obj 15 102 fx.pitchshift~;
#X connect 0 0 3 1;
#X connect 1 0 3 0;
#X connect 3 0 2 0;
