#N canvas -8 -8 1920 1037 10;
#X obj 17 17 inlet~ left;
#X obj 141 19 inlet~ right;
#X obj 590 9 inlet keyvelo;
#X obj 140 366 outlet~ right;
#X obj 590 32 rje_should_use_effect;
#X obj 378 76 rje_invert_0_1;
#X obj 15 366 outlet~ left;
#N canvas -156 422 1920 1037 effect 0;
#X obj 17 17 inlet~ left;
#X obj 141 19 inlet~ right;
#X obj 140 396 outlet~ right;
#X obj 15 396 outlet~ left;
#X obj 16 238 *~;
#X obj 140 234 *~;
#X obj 279 19 inlet should_use_effect;
#X msg 434 235 @drive \$1;
#X text 471 213 change over 5ms to avoid click;
#X msg 434 213 \$1 5;
#X obj 434 166 r \$0-velocity;
#X obj 434 190 expr max(0 \, ($f1 - 0.25));
#X obj 140 315 fx.distortion~;
#X obj 16 315 fx.distortion~;
#X connect 0 0 4 0;
#X connect 1 0 5 0;
#X connect 4 0 13 0;
#X connect 5 0 12 0;
#X connect 6 0 4 1;
#X connect 6 0 5 1;
#X connect 9 0 7 0;
#X connect 10 0 11 0;
#X connect 11 0 9 0;
#X connect 12 0 2 0;
#X connect 13 0 3 0;
#X restore 324 215 pd effect;
#X obj 16 215 *~ 1;
#X obj 141 215 *~ 1;
#X obj 284 290 *~ 0.5;
#X obj 216 290 *~ 0.5;
#X connect 0 0 7 0;
#X connect 0 0 8 0;
#X connect 1 0 7 1;
#X connect 1 0 9 0;
#X connect 2 0 4 0;
#X connect 4 0 5 0;
#X connect 4 0 7 2;
#X connect 5 0 8 1;
#X connect 5 0 9 1;
#X connect 7 0 11 0;
#X connect 7 1 10 0;
#X connect 8 0 6 0;
#X connect 9 0 3 0;
#X connect 10 0 3 0;
#X connect 11 0 6 0;
