#N canvas 283 348 961 770 10;
#X obj 141 216 spigot;
#X obj 36 25 inlet keyvelo;
#X obj 230 25 inlet ispedaldown;
#X obj 141 403 outlet keyvelo;
#X obj 141 96 buddy;
#X obj 141 317 buddy;
#X msg 168 262 \$2;
#X obj 141 357 spigot;
#X obj 168 287 == 0;
#X text 208 287 if velo == 0;
#X text 201 158 if pedal down;
#X obj 168 158 == 1;
#X connect 0 0 6 0;
#X connect 0 0 5 0;
#X connect 1 0 4 0;
#X connect 2 0 4 1;
#X connect 4 0 0 0;
#X connect 4 1 11 0;
#X connect 5 0 7 0;
#X connect 5 1 7 1;
#X connect 6 0 8 0;
#X connect 7 0 3 0;
#X connect 8 0 5 1;
#X connect 11 0 0 1;
