#N canvas -7 0 958 1028 10;
#X obj 17 17 inlet~ left;
#X obj 141 19 inlet~ right;
#X obj 590 9 inlet keyvelo;
#X obj 140 366 outlet~ right;
#X obj 590 32 rje_should_use_effect;
#X obj 378 76 rje_invert_0_1;
#X obj 15 366 outlet~ left;
#N canvas 953 0 958 1028 effect 0;
#X obj 17 17 inlet~ left;
#X obj 141 19 inlet~ right;
#X obj 140 396 outlet~ right;
#X obj 15 396 outlet~ left;
#X obj 279 19 inlet should_use_effect;
#X obj 140 315 fx.distortion~;
#X obj 16 315 fx.distortion~;
#X obj 272 230 loadbang;
#X obj 140 234 *~ 1;
#X obj 16 238 *~ 1;
#X msg 265 268 @drive 0.5;
#X connect 0 0 9 0;
#X connect 1 0 8 0;
#X connect 4 0 8 1;
#X connect 4 0 9 1;
#X connect 5 0 2 0;
#X connect 6 0 3 0;
#X connect 7 0 10 0;
#X connect 8 0 5 0;
#X connect 9 0 6 0;
#X connect 10 0 5 0;
#X connect 10 0 6 0;
#X restore 324 215 pd effect;
#X obj 16 215 *~ 1;
#X obj 141 215 *~ 1;
#X obj 590 128 moses 1;
#X obj 589 149 print distortion;
#X obj 216 290 *~ 0.2;
#X obj 284 290 *~ 0.2;
#X connect 0 0 7 0;
#X connect 0 0 8 0;
#X connect 1 0 7 1;
#X connect 1 0 9 0;
#X connect 2 0 4 0;
#X connect 4 0 5 0;
#X connect 4 0 7 2;
#X connect 4 0 10 0;
#X connect 5 0 9 1;
#X connect 5 0 8 1;
#X connect 7 0 12 0;
#X connect 7 1 13 0;
#X connect 8 0 6 0;
#X connect 9 0 3 0;
#X connect 10 1 11 0;
#X connect 12 0 6 0;
#X connect 13 0 3 0;
