#N canvas -8 -8 1920 1037 10;
#X obj 123 437 outlet~ right;
#X obj 18 437 outlet~ left;
#X msg 159 88 \$2;
#X obj 19 21 inlet keyvelo;
#X obj 159 115 moses 1;
#X obj 19 227 synth.bee3~;
#X msg 119 158 @gate 0;
#X msg 19 158 @freq \$1;
#X msg 211 158 @gate 1;
#X obj 19 136 mtof;
#X obj 18 368 *~ 0.005;
#X obj 122 367 *~ 0.005;
#X obj 197 228 r effect_chance;
#X obj 197 251 change;
#X obj 197 274 / 1000;
#X text 199 91 volume;
#X text 31 116 pitch;
#X text 198 209 more organ if weird effects chance is higher;
#X obj 197 310 / 200;
#X text 244 276 %;
#X text 236 310 because organ is too loud in general;
#X obj 161 228 bang;
#X connect 2 0 4 0;
#X connect 3 0 9 0;
#X connect 3 0 2 0;
#X connect 4 0 6 0;
#X connect 4 1 8 0;
#X connect 5 0 10 0;
#X connect 5 0 11 0;
#X connect 6 0 5 0;
#X connect 7 0 5 0;
#X connect 8 0 5 0;
#X connect 8 0 21 0;
#X connect 9 0 7 0;
#X connect 10 0 1 0;
#X connect 11 0 0 0;
#X connect 12 0 13 0;
#X connect 13 0 14 0;
#X connect 14 0 18 0;
#X connect 18 0 11 1;
#X connect 18 0 10 1;
#X connect 21 0 13 0;
