#N canvas 953 0 958 1028 10;
#X obj 9 13 inlet~ left;
#X obj 98 13 inlet~ right;
#X obj 10 706 outlet~ left;
#X obj 109 706 outlet~ right;
#X obj 300 13 inlet keyvelo;
#X obj 205 552 rje_pan_according_to_pitch~;
#X obj 364 530 r \$0-key_velocity;
#X obj 721 34 r \$0-key_velocity;
#N canvas 808 383 752 469 get_normalised_velocity 0;
#X text 90 32 velocity;
#X obj 52 55 / 127;
#X msg 52 33 \$2;
#X obj 52 132 outlet;
#X obj 51 6 inlet;
#X text 94 54 normalised;
#X connect 1 0 3 0;
#X connect 2 0 1 0;
#X connect 4 0 2 0;
#X restore 721 56 pd get_normalised_velocity;
#X obj 721 79 s \$0-velocity;
#X text 720 12 VELOCITY;
#X obj 300 35 s \$0-key_velocity;
#X obj 505 88 switch~;
#X obj 504 14 inlet switch_1_0;
#X obj 575 38 loadbang;
#X msg 575 62 1;
#X obj 109 102 r \$0-key_velocity;
#X obj 10 122 rje_effect_wahwah;
#X connect 0 0 17 0;
#X connect 1 0 17 1;
#X connect 4 0 11 0;
#X connect 6 0 5 2;
#X connect 7 0 8 0;
#X connect 8 0 9 0;
#X connect 14 0 15 0;
#X connect 15 0 12 0;
#X connect 16 0 17 2;
#X connect 17 0 2 0;
#X connect 17 1 3 0;
