#N canvas -8 -8 1920 1037 10;
#X floatatom 77 91 0 0 0 0 - - -;
#X floatatom 50 120 0 0 0 0 - - -;
#X floatatom 82 58 0 0 0 0 - - -;
#X obj 50 33 ctlin;
#X text 87 33 (all controllers \, omni);
#X text 117 91 controller # - 64 is pedal;
#X text 116 121 value - > 64 \, probably 127 is on;
#X text 116 59 channel - doesn't matter;
#X obj 81 302 loadbang;
#X msg 81 326 0;
#X obj 50 167 buddy;
#X obj 50 221 spigot;
#X obj 77 193 == 64;
#X text 94 222 ignore non-pedal midi messages;
#X obj 50 258 > 64;
#X obj 50 417 outlet;
#X connect 0 0 10 1;
#X connect 1 0 10 0;
#X connect 3 0 1 0;
#X connect 3 1 0 0;
#X connect 3 2 2 0;
#X connect 8 0 9 0;
#X connect 9 0 15 0;
#X connect 10 0 11 0;
#X connect 10 1 12 0;
#X connect 11 0 14 0;
#X connect 12 0 11 1;
#X connect 14 0 15 0;
