#N canvas -8 -8 1920 1037 10;
#X obj 22 13 loadbang;
#X msg 22 96 2;
#X msg 147 96 0.5;
#X obj 21 151 s constant_amplify;
#X obj 147 151 s constant_max_saturation;
#X obj 319 150 s constant_log_level;
#X text 346 97 2 normal \, 3 debug;
#X msg 318 98 3;
#X obj 22 61 bng 15 250 50 0 empty empty empty 17 7 0 10 -262144 -1
-1;
#X obj 22 38 metro 1000;
#X connect 0 0 9 0;
#X connect 1 0 3 0;
#X connect 2 0 4 0;
#X connect 7 0 5 0;
#X connect 8 0 1 0;
#X connect 8 0 2 0;
#X connect 8 0 7 0;
#X connect 9 0 8 0;
