#N canvas -7 0 958 1028 10;
#X obj 179 21 inlet;
#X text 223 19 velocity;
#X obj 179 48 buddy;
#X obj 179 75 spigot;
#X text 223 78 ignore note off;
#X obj 179 102 bng 15 250 50 0 empty empty empty 17 7 0 10 -262144
-1 -1;
#X obj 179 372 s notes_per_second;
#X obj 58 132 loadbang;
#X msg 58 200 0;
#X obj 179 172 rje_get_timestamp;
#X obj 58 174 metro 100;
#X obj 179 208 list.append;
#X msg 269 208;
#X obj 429 297 print LIST;
#X obj 312 174 rje_get_timestamp;
#X connect 0 0 2 0;
#X connect 0 0 2 1;
#X connect 2 0 3 0;
#X connect 2 1 3 1;
#X connect 3 0 5 0;
#X connect 5 0 9 0;
#X connect 7 0 10 0;
#X connect 7 0 14 0;
#X connect 8 0 6 0;
#X connect 9 0 11 0;
#X connect 10 0 8 0;
#X connect 11 0 12 0;
#X connect 11 0 13 0;
#X connect 12 0 11 1;
#X connect 14 0 11 1;
