#N canvas 724 167 1117 811 10;
#X obj 398 244 overdrive~;
#X obj 309 245 overdrive~;
#X obj 365 173 line~;
#X msg 365 148 \$1 5;
#X text 400 146 change over 5ms to avoid click;
#X obj 365 98 change;
#X obj 15 11 inlet~ left;
#X obj 106 11 inlet~ right;
#X obj 365 14 inlet velocity;
#X obj 365 122 rje_get_overdrive_amount_from_normalised_velocity;
#X obj 752 95 rje_is_note_on;
#X obj 752 126 switch~;
#X obj 309 295 outlet~ left;
#X obj 399 295 outlet~ right;
#X msg 752 69 0 \$1;
#X connect 0 0 13 0;
#X connect 1 0 12 0;
#X connect 2 0 1 1;
#X connect 2 0 0 1;
#X connect 3 0 2 0;
#X connect 5 0 9 0;
#X connect 6 0 1 0;
#X connect 7 0 0 0;
#X connect 8 0 5 0;
#X connect 8 0 14 0;
#X connect 9 0 3 0;
#X connect 10 0 11 0;
#X connect 14 0 10 0;
