#N canvas 0 50 450 300 10;
#X obj 145 88 r effect_chance;
#X obj 145 111 change;
#X obj 22 112 random 100;
#X obj 22 90 bang;
#X obj 22 68 moses 1;
#X obj 22 156 moses;
#X obj 22 227 outlet;
#X msg 22 42 \$2;
#X obj 22 16 inlet keyvelocity;
#X msg 22 187 1;
#X msg 22 187;
#X msg 80 188 0;
#X connect 0 0 1 0;
#X connect 1 0 5 1;
#X connect 2 0 5 0;
#X connect 3 0 2 0;
#X connect 4 1 3 0;
#X connect 5 0 9 0;
#X connect 5 0 10 0;
#X connect 5 1 11 0;
#X connect 7 0 4 0;
#X connect 8 0 7 0;
#X connect 9 0 6 0;
#X connect 11 0 6 0;
