#N canvas -8 -8 1920 1037 10;
#X obj 217 10 r note_pressed;
#X obj 217 33 bang;
#X obj 322 10 r reset_effect_ms;
#X obj 322 33 change;
#X obj 217 133 outlet;
#X obj 217 102 bang;
#X obj 217 67 delay 10000 1 msec;
#X obj 105 67 bang;
#X connect 0 0 1 0;
#X connect 1 0 6 0;
#X connect 2 0 3 0;
#X connect 3 0 6 1;
#X connect 5 0 4 0;
#X connect 5 0 7 0;
#X connect 6 0 5 0;
#X connect 7 0 1 0;
