#N canvas 953 0 958 1028 10;
#X obj 9 13 inlet~ left;
#X obj 88 13 inlet~ right;
#X obj 10 266 outlet~ left;
#X obj 169 266 outlet~ right;
#X obj 169 13 inlet keyvelo;
#X obj 10 200 rje_pan_according_to_pitch~;
#X obj 196 117 switch~;
#X obj 196 94 > 0;
#X msg 196 69 \$2;
#X obj 169 46 buddy;
#X connect 0 0 5 0;
#X connect 1 0 5 1;
#X connect 4 0 9 0;
#X connect 4 0 9 1;
#X connect 5 0 2 0;
#X connect 5 1 3 0;
#X connect 7 0 6 0;
#X connect 8 0 7 0;
#X connect 9 0 5 2;
#X connect 9 1 8 0;
