#N canvas -8 -8 1920 1037 10;
#X obj 18 14 inlet;
#X text 65 15 key key velocity;
#X obj 18 51 route 21 22 23 24 25 26 27 28 29 30 31 32 33 34 35 36
37 38 39 40 41 42 43 44 45 46 47 48 49 50 51 52 53 54 55 56 57 58 59
60 61 62 63 64 65 66 67 68 69 70 71 72 73 74 75 76 77 78 79 80 81 82
83 84 85 86 87 88 89 90 91 92 93 94 95 96 97 98 99 100 101 102 103
104 105 106 107 108, f 150;
#X obj 300 110 rje_play_note~;
#X obj 307 129 rje_play_note~;
#X obj 317 148 rje_play_note~;
#X obj 330 169 rje_play_note~;
#X obj 337 193 rje_play_note~;
#X obj 346 212 rje_play_note~;
#X obj 356 233 rje_play_note~;
#X obj 363 254 rje_play_note~;
#X obj 394 110 rje_play_note~;
#X obj 401 129 rje_play_note~;
#X obj 411 148 rje_play_note~;
#X obj 424 169 rje_play_note~;
#X obj 431 192 rje_play_note~;
#X obj 440 211 rje_play_note~;
#X obj 450 232 rje_play_note~;
#X obj 459 252 rje_play_note~;
#X obj 490 108 rje_play_note~;
#X obj 497 127 rje_play_note~;
#X obj 507 146 rje_play_note~;
#X obj 520 167 rje_play_note~;
#X obj 527 190 rje_play_note~;
#X obj 536 209 rje_play_note~;
#X obj 546 230 rje_play_note~;
#X obj 557 252 rje_play_note~;
#X obj 15 110 rje_play_note~;
#X obj 22 129 rje_play_note~;
#X obj 32 148 rje_play_note~;
#X obj 45 169 rje_play_note~;
#X obj 52 193 rje_play_note~;
#X obj 61 212 rje_play_note~;
#X obj 71 233 rje_play_note~;
#X obj 78 254 rje_play_note~;
#X obj 110 110 rje_play_note~;
#X obj 117 129 rje_play_note~;
#X obj 127 148 rje_play_note~;
#X obj 140 169 rje_play_note~;
#X obj 147 193 rje_play_note~;
#X obj 156 212 rje_play_note~;
#X obj 166 233 rje_play_note~;
#X obj 173 254 rje_play_note~;
#X obj 205 110 rje_play_note~;
#X obj 212 129 rje_play_note~;
#X obj 222 148 rje_play_note~;
#X obj 235 169 rje_play_note~;
#X obj 242 193 rje_play_note~;
#X obj 251 212 rje_play_note~;
#X obj 261 233 rje_play_note~;
#X obj 268 254 rje_play_note~;
#X obj 584 109 rje_play_note~;
#X obj 591 128 rje_play_note~;
#X obj 601 147 rje_play_note~;
#X obj 614 168 rje_play_note~;
#X obj 621 191 rje_play_note~;
#X obj 630 210 rje_play_note~;
#X obj 640 231 rje_play_note~;
#X obj 651 253 rje_play_note~;
#X obj 679 109 rje_play_note~;
#X obj 686 128 rje_play_note~;
#X obj 696 147 rje_play_note~;
#X obj 709 168 rje_play_note~;
#X obj 716 191 rje_play_note~;
#X obj 725 210 rje_play_note~;
#X obj 735 231 rje_play_note~;
#X obj 746 253 rje_play_note~;
#X obj 774 109 rje_play_note~;
#X obj 781 128 rje_play_note~;
#X obj 791 147 rje_play_note~;
#X obj 804 168 rje_play_note~;
#X obj 811 191 rje_play_note~;
#X obj 820 210 rje_play_note~;
#X obj 830 231 rje_play_note~;
#X obj 841 253 rje_play_note~;
#X obj 869 109 rje_play_note~;
#X obj 876 128 rje_play_note~;
#X obj 886 147 rje_play_note~;
#X obj 899 168 rje_play_note~;
#X obj 906 191 rje_play_note~;
#X obj 915 210 rje_play_note~;
#X obj 925 231 rje_play_note~;
#X obj 936 253 rje_play_note~;
#X obj 966 108 rje_play_note~;
#X obj 973 127 rje_play_note~;
#X obj 983 146 rje_play_note~;
#X obj 996 167 rje_play_note~;
#X obj 1003 190 rje_play_note~;
#X obj 1012 209 rje_play_note~;
#X obj 1022 230 rje_play_note~;
#X obj 1033 252 rje_play_note~;
#X connect 0 0 2 0;
#X connect 2 0 27 0;
#X connect 2 1 28 0;
#X connect 2 2 29 0;
#X connect 2 3 30 0;
#X connect 2 4 31 0;
#X connect 2 5 32 0;
#X connect 2 6 33 0;
#X connect 2 7 34 0;
#X connect 2 8 35 0;
#X connect 2 9 36 0;
#X connect 2 10 37 0;
#X connect 2 11 38 0;
#X connect 2 12 39 0;
#X connect 2 13 40 0;
#X connect 2 14 41 0;
#X connect 2 15 42 0;
#X connect 2 16 43 0;
#X connect 2 17 44 0;
#X connect 2 18 45 0;
#X connect 2 19 46 0;
#X connect 2 20 47 0;
#X connect 2 21 48 0;
#X connect 2 22 49 0;
#X connect 2 23 50 0;
#X connect 2 24 3 0;
#X connect 2 25 4 0;
#X connect 2 26 5 0;
#X connect 2 27 6 0;
#X connect 2 28 7 0;
#X connect 2 29 8 0;
#X connect 2 30 9 0;
#X connect 2 31 10 0;
#X connect 2 32 11 0;
#X connect 2 33 12 0;
#X connect 2 34 13 0;
#X connect 2 35 14 0;
#X connect 2 36 15 0;
#X connect 2 37 16 0;
#X connect 2 38 17 0;
#X connect 2 39 18 0;
#X connect 2 40 19 0;
#X connect 2 41 20 0;
#X connect 2 42 21 0;
#X connect 2 43 22 0;
#X connect 2 44 23 0;
#X connect 2 45 24 0;
#X connect 2 46 25 0;
#X connect 2 47 26 0;
#X connect 2 48 51 0;
#X connect 2 49 52 0;
#X connect 2 50 53 0;
#X connect 2 51 54 0;
#X connect 2 52 55 0;
#X connect 2 53 56 0;
#X connect 2 54 57 0;
#X connect 2 55 58 0;
#X connect 2 56 59 0;
#X connect 2 57 60 0;
#X connect 2 58 61 0;
#X connect 2 59 62 0;
#X connect 2 60 63 0;
#X connect 2 61 64 0;
#X connect 2 62 65 0;
#X connect 2 63 66 0;
#X connect 2 64 67 0;
#X connect 2 65 68 0;
#X connect 2 66 69 0;
#X connect 2 67 70 0;
#X connect 2 68 71 0;
#X connect 2 69 72 0;
#X connect 2 70 73 0;
#X connect 2 71 74 0;
#X connect 2 72 75 0;
#X connect 2 73 76 0;
#X connect 2 74 77 0;
#X connect 2 75 78 0;
#X connect 2 76 79 0;
#X connect 2 77 80 0;
#X connect 2 78 81 0;
#X connect 2 79 82 0;
#X connect 2 80 83 0;
#X connect 2 81 84 0;
#X connect 2 82 85 0;
#X connect 2 83 86 0;
#X connect 2 84 87 0;
#X connect 2 85 88 0;
#X connect 2 86 89 0;
#X connect 2 87 90 0;
