#N canvas -7 0 958 1028 10;
#X obj 16 10 inlet~;
#X obj 15 511 outlet~;
#X msg 262 212 stop;
#X obj 184 139 bang;
#X obj 184 119 r start_recording;
#X obj 262 188 loadbang;
#X obj 328 188 r stop_recording;
#X obj 184 319 r play_loop;
#X obj 270 319 r stop_loop;
#X obj 184 348 bang;
#X msg 270 348 stop;
#X obj 184 248 tabwrite~ \$0-loop;
#X obj 184 377 tabplay~ \$0-loop;
#X obj 188 14 table \$0-loop 1.323e+006;
#X text 340 13 44100 * 30s;
#X obj 195 163 print Start recording;
#X obj 328 213 print Stop recording;
#X obj 73 377 print Play loop;
#X obj 304 377 print Stop loop;
#X obj 632 38 r record_key_pressed;
#X obj 631 107 bng 15 250 50 0 empty empty empty 17 7 0 10 -262144
-1 -1;
#X msg 632 61 \$2;
#X obj 632 85 moses 1;
#X text 684 84 ignore note off;
#X obj 631 133 tgl 15 0 empty empty empty 17 7 0 10 -262144 -1 -1 0
1;
#X obj 631 160 moses 1;
#X obj 631 186 s stop_recording;
#X obj 745 186 s start_recording;
#X text 631 17 Trigger recording on/off;
#X obj 631 338 bng 15 250 50 0 empty empty empty 17 7 0 10 -262144
-1 -1;
#X msg 632 292 \$2;
#X obj 632 316 moses 1;
#X text 684 315 ignore note off;
#X obj 631 364 tgl 15 0 empty empty empty 17 7 0 10 -262144 -1 -1 0
1;
#X obj 631 391 moses 1;
#X text 631 248 Trigger play loop on/off;
#X obj 632 269 r play_key_pressed;
#X obj 631 417 s stop_loop;
#X obj 715 417 s play_loop;
#X obj 633 609 timer;
#X obj 633 586 bang;
#X text 632 538 Track recording length;
#X obj 633 562 r start_recording;
#X obj 755 562 r stop_recording;
#X obj 633 634 / 1000;
#X text 680 633 loop length in seconds;
#X obj 749 671 print Loop length;
#X obj 633 671 s loop_length;
#X obj 755 584 bang;
#X connect 0 0 1 0;
#X connect 0 0 11 0;
#X connect 2 0 11 0;
#X connect 3 0 11 0;
#X connect 3 0 15 0;
#X connect 4 0 3 0;
#X connect 5 0 2 0;
#X connect 6 0 2 0;
#X connect 6 0 16 0;
#X connect 7 0 9 0;
#X connect 8 0 10 0;
#X connect 9 0 12 0;
#X connect 9 0 17 0;
#X connect 10 0 12 0;
#X connect 10 0 18 0;
#X connect 12 0 1 0;
#X connect 19 0 21 0;
#X connect 20 0 24 0;
#X connect 21 0 22 0;
#X connect 22 1 20 0;
#X connect 24 0 25 0;
#X connect 25 0 26 0;
#X connect 25 1 27 0;
#X connect 29 0 33 0;
#X connect 30 0 31 0;
#X connect 31 1 29 0;
#X connect 33 0 34 0;
#X connect 34 0 37 0;
#X connect 34 1 38 0;
#X connect 36 0 30 0;
#X connect 39 0 44 0;
#X connect 40 0 39 0;
#X connect 42 0 40 0;
#X connect 43 0 48 0;
#X connect 44 0 46 0;
#X connect 44 0 47 0;
#X connect 48 0 39 1;
