#N canvas -7 0 958 1028 10;
#X obj 17 17 inlet~ left;
#X obj 141 19 inlet~ right;
#X obj 140 366 outlet~ right;
#X obj 325 96 rje_invert_0_1;
#X obj 15 366 outlet~ left;
#N canvas -8 -8 1920 1037 effect 1;
#X obj 17 17 inlet~ left;
#X obj 211 19 inlet~ right;
#X obj 210 726 outlet~ right;
#X obj 15 726 outlet~ left;
#X obj 349 19 inlet should_use_effect;
#X obj 210 564 *~ 1;
#X obj 16 568 *~ 1;
#X obj 16 645 fx.freeverb~ 0.95 0.1;
#X obj 210 645 fx.freeverb~ 0.95 0.1;
#X connect 0 0 6 0;
#X connect 1 0 5 0;
#X connect 4 0 5 1;
#X connect 4 0 6 1;
#X connect 5 0 8 0;
#X connect 6 0 7 0;
#X connect 7 0 3 0;
#X connect 8 0 2 0;
#X restore 324 215 pd effect;
#X obj 630 108 moses 1;
#X obj 141 215 *~ 1;
#X obj 16 215 *~ 1;
#X obj 630 129 print reverb;
#N canvas -8 -8 1920 1037 should_use_effect 0;
#X obj 190 230 r effect_chance;
#X obj 190 253 change;
#X obj 57 549 moses;
#X obj 57 640 outlet;
#X msg 57 580 1;
#X msg 57 580;
#X msg 287 581 0;
#X obj 260 52 loadbang;
#X obj 260 108 buddy;
#X obj 287 472 bang;
#X text 193 27 randomize reverb every 5 sec;
#X text 320 471 turn it off before rechecking;
#X obj 57 342 random 1000;
#X obj 260 79 metro 1000;
#X obj 175 278 f;
#X obj 57 228 bang;
#X connect 0 0 1 0;
#X connect 1 0 14 1;
#X connect 2 0 4 0;
#X connect 2 0 5 0;
#X connect 2 1 6 0;
#X connect 4 0 3 0;
#X connect 6 0 3 0;
#X connect 7 0 13 0;
#X connect 8 0 15 0;
#X connect 8 1 9 0;
#X connect 9 0 6 0;
#X connect 12 0 2 0;
#X connect 13 0 8 0;
#X connect 13 0 8 1;
#X connect 14 0 2 1;
#X connect 15 0 14 0;
#X connect 15 0 12 0;
#X restore 470 21 pd should_use_effect;
#X connect 0 0 5 0;
#X connect 0 0 8 0;
#X connect 1 0 5 1;
#X connect 1 0 7 0;
#X connect 3 0 7 1;
#X connect 3 0 8 1;
#X connect 5 0 4 0;
#X connect 5 1 2 0;
#X connect 6 1 9 0;
#X connect 7 0 2 0;
#X connect 8 0 4 0;
#X connect 10 0 6 0;
#X connect 10 0 3 0;
#X connect 10 0 5 2;
