#N canvas -8 -8 1920 1037 10;
#X obj 20 12 inlet~ left;
#X obj 122 12 inlet~ right;
#X obj 20 313 outlet~ left;
#X obj 122 312 outlet~ right;
#X obj 227 12 inlet keyvelo;
#X obj 20 232 *~;
#X obj 122 231 *~;
#X msg 227 39 \$1;
#X text 277 40 pitches range from 21 to 108;
#X obj 227 65 - 21;
#X obj 227 90 max 12;
#X obj 227 113 min 75;
#X text 280 96 compress the range to remove the extreme 8ves;
#X text 588 175 range it from 0 to 63;
#X obj 227 158 expr (63 - ($f1 - 12)) / 63;
#X obj 440 157 expr ($f1 - 12) / 63;
#X connect 0 0 5 0;
#X connect 1 0 6 0;
#X connect 4 0 7 0;
#X connect 5 0 2 0;
#X connect 6 0 3 0;
#X connect 7 0 9 0;
#X connect 9 0 10 0;
#X connect 10 0 11 0;
#X connect 11 0 14 0;
#X connect 11 0 15 0;
#X connect 14 0 5 1;
#X connect 15 0 6 1;
