#N canvas -8 -8 1920 1037 10;
#X declare -lib ceammc;
#X obj 3 4 declare -lib ceammc;
#X obj 27 41 inlet;
#X obj 500 80 msg note 1;
#X text 129 3 To setup: Help - Find externals \, add ceammc;
#X text 70 40 key \, velocity (62 121);
#X text 570 79 channel 1 \, key \, velocity;
#X obj 27 63 s \$0-key_velocity;
#X obj 500 58 r \$0-key_velocity;
#X obj 277 69 r \$0-key_velocity;
#X obj 572 111 print Note received in play~\$0;
#X obj 593 374 overdrive~;
#N canvas 808 383 752 469 get_overdrive_amount_from_normalised_velocity
0;
#X obj 52 132 outlet;
#X obj 51 6 inlet;
#X obj 52 107 + 1;
#X obj 52 84 * 8;
#X text 87 96 overdrive goes from 1 to 10 so we go to 9;
#X connect 1 0 3 0;
#X connect 2 0 0 0;
#X connect 3 0 2 0;
#X restore 574 282 pd get_overdrive_amount_from_normalised_velocity
;
#N canvas 808 383 752 469 get_normalised_velocity 0;
#X text 90 32 velocity;
#X obj 52 55 / 127;
#X msg 52 33 \$2;
#X obj 52 132 outlet;
#X obj 51 6 inlet;
#X text 94 54 normalised;
#X connect 1 0 3 0;
#X connect 2 0 1 0;
#X connect 4 0 2 0;
#X restore 277 91 pd get_normalised_velocity;
#X obj 277 114 s \$0-velocity;
#X obj 574 230 r \$0-velocity;
#X obj 592 477 /~ 2;
#X obj 515 375 overdrive~;
#X obj 514 478 /~ 2;
#X obj 230 469 /~ 2;
#X obj 43 469 /~ 2;
#X obj 574 333 line~;
#X msg 574 308 \$1 5;
#X text 609 306 change over 5ms to avoid click;
#X text 515 199 OVERDRIVE;
#X text 39 190 PIANO;
#X text 276 44 VELOCITY;
#X obj 42 216 r \$0-note;
#X obj 500 111 s \$0-note;
#X text 501 40 MAKE NOTE;
#X text 1050 189 STRINGS;
#X obj 42 256 rje_sound_piano~;
#X obj 1051 211 r \$0-key_velocity;
#X obj 1051 240 rje_play_string~;
#X obj 574 258 change;
#X obj 43 828 throw~ individual_notes_left;
#X obj 248 828 throw~ individual_notes_right;
#X obj 43 495 throw~ \$0-signal_1_left;
#X obj 513 526 throw~ \$0-signal_1_left;
#X obj 1052 292 throw~ \$0-signal_1_left;
#X obj 230 495 throw~ \$0-signal_1_right;
#X obj 593 503 throw~ \$0-signal_1_right;
#X obj 1145 269 throw~ \$0-signal_1_right;
#X obj 42 639 catch~ \$0-signal_1_left;
#X obj 248 638 catch~ \$0-signal_1_right;
#X obj 293 733 rje_delay_play_note~;
#X obj 85 731 rje_delay_play_note~;
#X connect 1 0 6 0;
#X connect 2 0 9 0;
#X connect 2 0 27 0;
#X connect 7 0 2 0;
#X connect 8 0 12 0;
#X connect 10 0 15 0;
#X connect 11 0 21 0;
#X connect 12 0 13 0;
#X connect 14 0 33 0;
#X connect 15 0 40 0;
#X connect 16 0 17 0;
#X connect 17 0 37 0;
#X connect 18 0 39 0;
#X connect 19 0 36 0;
#X connect 20 0 16 1;
#X connect 20 0 10 1;
#X connect 21 0 20 0;
#X connect 26 0 30 0;
#X connect 30 0 19 0;
#X connect 30 0 16 0;
#X connect 30 1 18 0;
#X connect 30 1 10 0;
#X connect 31 0 32 0;
#X connect 32 0 38 0;
#X connect 32 1 41 0;
#X connect 33 0 11 0;
#X connect 42 0 34 0;
#X connect 42 0 45 0;
#X connect 43 0 35 0;
#X connect 43 0 44 0;
#X connect 44 0 35 0;
#X connect 45 0 34 0;
