#N canvas 717 178 1117 811 10;
#X obj 15 11 inlet~ left;
#X obj 116 11 inlet~ right;
#X obj 601 75 rje_is_note_on;
#X obj 601 106 switch~;
#X obj 15 248 outlet~ left;
#X obj 115 248 outlet~ right;
#X msg 601 50 0 \$1;
#X obj 601 15 inlet velocity;
#X obj 15 155 fx.distortion~;
#X obj 116 154 fx.distortion~;
#X msg 218 109 @drive \$1;
#X msg 218 79 \$1 5;
#X text 255 79 change over 5ms to avoid click;
#X obj 387 49 * 0.7;
#X connect 0 0 8 0;
#X connect 1 0 9 0;
#X connect 2 0 3 0;
#X connect 6 0 2 0;
#X connect 7 0 6 0;
#X connect 7 0 13 0;
#X connect 8 0 4 0;
#X connect 9 0 5 0;
#X connect 10 0 9 0;
#X connect 10 0 8 0;
#X connect 11 0 10 0;
#X connect 13 0 11 0;
