#N canvas -8 -8 1920 1037 10;
#X obj 16 10 inlet~;
#X obj 15 511 outlet~;
#X msg 262 212 stop;
#X obj 184 139 bang;
#X obj 262 188 loadbang;
#X obj 184 348 bang;
#X msg 280 348 stop;
#X obj 184 248 tabwrite~ \$0-loop;
#X obj 188 14 table \$0-loop 1.323e+006;
#X text 340 13 44100 * 30s;
#X obj 195 163 print Start recording;
#X obj 73 377 print Play loop;
#X obj 314 377 print Stop loop;
#X obj 632 38 r record_key_pressed;
#X obj 631 107 bng 15 250 50 0 empty empty empty 17 7 0 10 -262144
-1 -1;
#X msg 632 61 \$2;
#X obj 632 85 moses 1;
#X text 684 84 ignore note off;
#X obj 631 133 tgl 15 0 empty empty empty 17 7 0 10 -262144 -1 -1 0
1;
#X obj 631 160 moses 1;
#X text 631 17 Trigger recording on/off;
#X obj 631 328 bng 15 250 50 0 empty empty empty 17 7 0 10 -262144
-1 -1;
#X msg 632 282 \$2;
#X obj 632 306 moses 1;
#X text 684 305 ignore note off;
#X obj 631 354 tgl 15 0 empty empty empty 17 7 0 10 -262144 -1 -1 1
1;
#X obj 631 381 moses 1;
#X text 631 238 Trigger play loop on/off;
#X obj 632 259 r play_key_pressed;
#X obj 631 529 timer;
#X obj 631 506 bang;
#X text 630 458 Track recording length;
#X obj 631 554 / 1000;
#X text 678 553 loop length in seconds;
#X obj 747 591 print Loop length;
#X obj 631 591 s loop_length;
#X obj 773 504 bang;
#X obj 659 817 tabread4~ \$0-loop;
#X obj 631 185 s \$0-stop_recording;
#X obj 756 185 s \$0-start_recording;
#X obj 631 407 s \$0-stop_loop;
#X obj 735 407 s \$0-play_loop;
#X obj 773 482 r \$0-stop_recording;
#X obj 631 482 r \$0-start_recording;
#X obj 184 119 r \$0-start_recording;
#X obj 328 188 r \$0-stop_recording;
#X obj 280 319 r \$0-stop_loop;
#X obj 184 319 r \$0-play_loop;
#X obj 328 213 print Stop recording;
#X obj 655 772 phasor~;
#X msg 237 609 0 \, \$1 \$2;
#X text 298 608 first sample \, number of samples \, seconds;
#X obj 237 639 line~;
#X obj 237 670 tabread~ \$0-loop;
#X obj 264 541 pack f f;
#X obj 309 478 r loop_length;
#X obj 254 512 * 44100;
#X obj 1264 481 bang;
#X msg 1360 481 stop;
#X obj 1264 510 tabplay~ \$0-loop;
#X obj 1394 510 print Stop loop;
#X obj 1360 452 r \$0-stop_loop;
#X obj 1264 452 r \$0-play_loop;
#X obj 1149 508 print Play loop;
#X obj 113 751 print h;
#X obj 207 574 list store;
#X obj 1112 417 bng 15 250 50 0 empty empty empty 17 7 0 10 -262144
-1 -1;
#X connect 0 0 1 0;
#X connect 0 0 7 0;
#X connect 2 0 7 0;
#X connect 3 0 7 0;
#X connect 3 0 10 0;
#X connect 4 0 2 0;
#X connect 5 0 11 0;
#X connect 5 0 65 0;
#X connect 6 0 12 0;
#X connect 13 0 15 0;
#X connect 14 0 18 0;
#X connect 15 0 16 0;
#X connect 16 1 14 0;
#X connect 18 0 19 0;
#X connect 19 0 38 0;
#X connect 19 1 39 0;
#X connect 21 0 25 0;
#X connect 22 0 23 0;
#X connect 23 1 21 0;
#X connect 25 0 26 0;
#X connect 26 0 40 0;
#X connect 26 1 41 0;
#X connect 28 0 22 0;
#X connect 29 0 32 0;
#X connect 30 0 29 0;
#X connect 32 0 34 0;
#X connect 32 0 35 0;
#X connect 36 0 29 1;
#X connect 42 0 36 0;
#X connect 43 0 30 0;
#X connect 44 0 3 0;
#X connect 45 0 2 0;
#X connect 45 0 48 0;
#X connect 46 0 6 0;
#X connect 47 0 5 0;
#X connect 50 0 52 0;
#X connect 50 0 64 0;
#X connect 52 0 53 0;
#X connect 53 0 1 0;
#X connect 54 0 65 1;
#X connect 55 0 54 1;
#X connect 55 0 56 0;
#X connect 56 0 54 0;
#X connect 58 0 59 0;
#X connect 59 0 1 0;
#X connect 61 0 58 0;
#X connect 62 0 57 0;
#X connect 65 0 50 0;
#X connect 66 0 59 0;
