#N canvas 251 296 737 632 10;
#X obj 32 147 fluid~;
#X obj 32 64 loadbang;
#X msg 32 86 @sf ../soundfonts/westCoastPiano.sf2;
#X obj 65 113 inlet;
#X text 109 113 pitch velocity;
#X obj 33 200 outlet~;
#X obj 103 200 outlet~;
#X obj 279 167 rje_is_note_on;
#X obj 279 198 switch~;
#X connect 0 0 5 0;
#X connect 0 1 6 0;
#X connect 1 0 2 0;
#X connect 2 0 0 0;
#X connect 3 0 0 0;
#X connect 3 0 7 0;
#X connect 7 0 8 0;
