#N canvas 466 45 958 862 10;
#X obj 179 21 inlet;
#X text 223 19 velocity;
#X obj 179 48 buddy;
#X obj 179 75 spigot;
#X text 228 76 ignore note off;
#X obj 179 102 bng 15 250 50 0 empty empty empty 17 7 0 10 -262144
-1 -1;
#X obj 180 389 s notes_per_second;
#X obj 539 182 loadbang;
#X obj 179 152 rje_get_timestamp;
#X obj 539 204 metro 100;
#X obj 73 296 print LIST;
#X obj 710 582 rje_get_timestamp;
#X obj 179 238 list append;
#X obj 619 332 list store;
#X obj 710 562 loadbang;
#X obj 316 281 list.pass_if;
#X obj 539 229 rje_get_timestamp;
#X obj 539 254 - 1000;
#X obj 538 281 >;
#X obj 70 352 print LENGTH;
#X obj 179 295 list length;
#X obj 45 184 print NOW;
#X obj 408 533 timer;
#X connect 0 0 2 0;
#X connect 0 0 2 1;
#X connect 2 0 3 0;
#X connect 2 1 3 1;
#X connect 3 0 5 0;
#X connect 5 0 8 0;
#X connect 7 0 9 0;
#X connect 8 0 12 0;
#X connect 8 0 21 0;
#X connect 9 0 16 0;
#X connect 12 0 10 0;
#X connect 12 0 15 0;
#X connect 12 0 20 0;
#X connect 13 0 12 1;
#X connect 14 0 11 0;
#X connect 15 0 13 0;
#X connect 15 1 18 0;
#X connect 16 0 17 0;
#X connect 17 0 18 1;
#X connect 18 0 15 1;
#X connect 20 0 19 0;
#X connect 20 0 6 0;
